<svg width="156" height="209" viewBox="0 0 156 209" fill="none" xmlns="http://www.w3.org/2000/svg">
<path fill-rule="evenodd" clip-rule="evenodd" d="M12.1962 91.7397C8.33017 91.7397 5.19617 94.8737 5.19617 98.7397V115.983C5.19617 119.849 8.33016 122.983 12.1962 122.983H16.2788V148.566C16.2788 181.703 43.1418 208.566 76.2788 208.566H79.2623C112.399 208.566 139.262 181.703 139.262 148.566V122.983H142.729C146.595 122.983 149.729 119.849 149.729 115.983V98.7397C149.729 94.8737 146.595 91.7397 142.729 91.7397H12.1962ZM59.2995 122.983H45.9893L45.8965 116.983H59.2995V122.983ZM70.3821 122.983H133.262V148.566C133.262 178.389 109.086 202.566 79.2623 202.566H76.2788C46.4555 202.566 22.2788 178.389 22.2788 148.566V122.983H32.4422L32.3494 116.983H19.2788H12.1962C11.6439 116.983 11.1962 116.536 11.1962 115.983V98.7397C11.1962 98.1874 11.6439 97.7397 12.1962 97.7397H142.729C143.282 97.7397 143.729 98.1874 143.729 98.7397V115.983C143.729 116.536 143.281 116.983 142.729 116.983H136.262H70.3821V122.983Z" fill="white"/>
<path d="M80.7705 36.2479C80.7705 34.5911 79.4274 33.2479 77.7705 33.2479C76.1137 33.2479 74.7705 34.5911 74.7705 36.2479H80.7705ZM80.7705 92.8926V36.2479H74.7705V92.8926H80.7705Z" fill="white"/>
<path d="M3.27051 3H50.7705C65.6822 3 77.7705 15.0883 77.7705 30V36.2479H30.2705C15.3588 36.2479 3.27051 24.1596 3.27051 9.24793V3Z" stroke="white" stroke-width="6" stroke-linejoin="round"/>
<path d="M152.271 19.624H104.771C89.8588 19.624 77.7705 31.7123 77.7705 46.624V52.8719H125.271C140.182 52.8719 152.271 40.7836 152.271 25.8719V19.624Z" stroke="white" stroke-width="6" stroke-linejoin="round"/>
</svg>
