<svg width="214" height="210" viewBox="0 0 214 210" fill="none" xmlns="http://www.w3.org/2000/svg">
<g filter="url(#filter0_d_23_425)">
<path d="M116.833 193.533C117.406 192.909 117.969 192.279 118.522 191.645L168.173 160.226C206.289 136.107 217.36 86.0907 192.816 48.5247C189.153 42.9185 181.619 41.3343 175.976 44.905L125.764 76.6782C121.37 70.1605 116.086 64.0725 109.92 58.5872L52.4904 7.49831C46.8526 2.48295 38.1677 2.90777 33.061 8.46735C-2.89261 47.6094 0.211903 108.041 39.9737 143.413L97.4031 194.502C103.041 199.517 111.726 199.092 116.833 193.533Z" stroke="white" stroke-width="8"/>
<path d="M115.122 194.336C115.527 193.897 115.927 193.455 116.319 193.009L153.69 169.521C182.93 151.143 191.451 112.997 172.598 84.3362C169.529 79.6722 163.25 78.3762 158.555 81.3272L121.425 104.664C118.17 100 114.303 95.6362 109.83 91.6843L66.4654 53.3677C61.8146 49.2582 54.6598 49.6021 50.4409 54.1641C22.9065 83.9378 25.2893 129.917 55.732 156.816L99.097 195.132C103.748 199.242 110.903 198.898 115.122 194.336Z" stroke="white" stroke-width="8"/>
</g>
<defs>
<filter id="filter0_d_23_425" x="-0.00012207" y="0" width="213.878" height="210" filterUnits="userSpaceOnUse" color-interpolation-filters="sRGB">
<feFlood flood-opacity="0" result="BackgroundImageFix"/>
<feColorMatrix in="SourceAlpha" type="matrix" values="0 0 0 0 0 0 0 0 0 0 0 0 0 0 0 0 0 0 127 0" result="hardAlpha"/>
<feOffset dy="4"/>
<feGaussianBlur stdDeviation="2"/>
<feComposite in2="hardAlpha" operator="out"/>
<feColorMatrix type="matrix" values="0 0 0 0 0 0 0 0 0 0 0 0 0 0 0 0 0 0 0.25 0"/>
<feBlend mode="normal" in2="BackgroundImageFix" result="effect1_dropShadow_23_425"/>
<feBlend mode="normal" in="SourceGraphic" in2="effect1_dropShadow_23_425" result="shape"/>
</filter>
</defs>
</svg>
