<svg width="155" height="209" viewBox="0 0 155 209" fill="none" xmlns="http://www.w3.org/2000/svg">
<path fill-rule="evenodd" clip-rule="evenodd" d="M11.9255 91.7396C8.05954 91.7396 4.92554 94.8736 4.92554 98.7396V115.983C4.92554 119.849 8.05953 122.983 11.9255 122.983H16.0082V148.566C16.0082 181.703 42.8711 208.566 76.0082 208.566H78.9917C112.129 208.566 138.992 181.703 138.992 148.566V122.983H142.459C146.325 122.983 149.459 119.849 149.459 115.983V98.7396C149.459 94.8736 146.325 91.7396 142.459 91.7396H11.9255ZM59.0288 122.983H45.7187L45.6258 116.983H59.0288V122.983ZM70.1115 122.983H132.992V148.566C132.992 178.389 108.815 202.566 78.9917 202.566H76.0082C46.1848 202.566 22.0082 178.389 22.0082 148.566V122.983H32.1716L32.0788 116.983H19.0082H11.9255C11.3733 116.983 10.9255 116.536 10.9255 115.983V98.7396C10.9255 98.1873 11.3733 97.7396 11.9255 97.7396H142.459C143.011 97.7396 143.459 98.1873 143.459 98.7396V115.983C143.459 116.536 143.011 116.983 142.459 116.983H135.992H70.1115V122.983Z" fill="white"/>
<path d="M80.5 36.248C80.5 34.5911 79.1569 33.248 77.5 33.248C75.8431 33.248 74.5 34.5911 74.5 36.248H80.5ZM80.5 92.8926V36.248H74.5V92.8926H80.5Z" fill="white"/>
<path d="M3 3H50.5C65.4117 3 77.5 15.0883 77.5 30V36.2479H30C15.0883 36.2479 3 24.1596 3 9.24793V3Z" stroke="white" stroke-width="6" stroke-linejoin="round"/>
<path d="M152 19.624H104.5C89.5883 19.624 77.5 31.7123 77.5 46.624V52.872H125C139.912 52.872 152 40.7836 152 25.872V19.624Z" stroke="white" stroke-width="6" stroke-linejoin="round"/>
</svg>
