<svg width="28" height="29" viewBox="0 0 28 29" fill="none" xmlns="http://www.w3.org/2000/svg">
<path d="M15.5851 23.0595L19.1678 19.2492C19.4997 18.8961 20.0219 18.847 20.407 19.1326L25.6616 23.0303C26.1562 23.3972 26.2188 24.1504 25.7924 24.604L24.5946 25.8779C23.9065 26.6097 22.9227 26.9266 21.9907 26.6291C19.4312 25.8122 14.0758 23.6646 9.68789 18.9978C5.29997 14.331 3.28064 8.6353 2.51259 5.91311C2.23292 4.92188 2.53083 3.87558 3.21889 3.1438L4.41673 1.86984C4.84314 1.41633 5.55134 1.48293 5.89631 2.00898L9.56113 7.59754C9.82968 8.00706 9.78351 8.56243 9.45156 8.91547L5.86888 12.7258" stroke="white" stroke-width="3" stroke-linecap="round"/>
</svg>
