<svg width="199" height="196" viewBox="0 0 199 196" fill="none" xmlns="http://www.w3.org/2000/svg">
<path fill-rule="evenodd" clip-rule="evenodd" d="M112.171 18.0294L62.51 99.7912L57.9218 97.0086L107.583 15.2468L112.171 18.0294Z" fill="white"/>
<path fill-rule="evenodd" clip-rule="evenodd" d="M43.9369 126.317C47.1481 126.317 49.7513 123.716 49.7513 120.507C49.7513 117.298 47.1481 114.697 43.9369 114.697C40.7257 114.697 38.1225 117.298 38.1225 120.507C38.1225 123.716 40.7257 126.317 43.9369 126.317ZM43.9369 131.68C50.1123 131.68 55.1184 126.678 55.1184 120.507C55.1184 114.336 50.1123 109.334 43.9369 109.334C37.7615 109.334 32.7554 114.336 32.7554 120.507C32.7554 126.678 37.7615 131.68 43.9369 131.68Z" fill="white"/>
<path fill-rule="evenodd" clip-rule="evenodd" d="M66.2999 160.284C69.5111 160.284 72.1143 157.683 72.1143 154.474C72.1143 151.265 69.5111 148.664 66.2999 148.664C63.0887 148.664 60.4855 151.265 60.4855 154.474C60.4855 157.683 63.0887 160.284 66.2999 160.284ZM66.2999 165.647C72.4753 165.647 77.4814 160.645 77.4814 154.474C77.4814 148.303 72.4753 143.3 66.2999 143.3C60.1245 143.3 55.1184 148.303 55.1184 154.474C55.1184 160.645 60.1245 165.647 66.2999 165.647Z" fill="white"/>
<path fill-rule="evenodd" clip-rule="evenodd" d="M119.555 164.118C109.214 162.035 103.003 161.938 92.7307 164.113C87.8249 165.152 84.4167 167.758 80.6985 170.601C80.3453 170.871 79.9893 171.143 79.6289 171.416C75.536 174.519 70.9522 177.657 64.0613 177.57C57.301 177.484 52.8861 174.133 48.9947 171.016C48.8154 170.873 48.6373 170.73 48.4601 170.588C44.7191 167.584 41.3999 164.919 36.456 164.134C35.5342 163.988 34.6438 163.841 33.7814 163.699C25.2602 162.292 19.469 161.335 13.0733 165.971C11.174 167.347 9.6706 169.576 8.51759 172.369C7.37142 175.146 6.63987 178.316 6.18311 181.36C5.72794 184.394 5.55571 187.234 5.49817 189.32C5.48603 189.76 5.47902 190.165 5.47551 190.531H159.891C159.759 190.4 159.625 190.267 159.487 190.131C156.921 187.602 153.287 184.189 149.011 180.649C140.371 173.496 129.444 166.11 119.555 164.118ZM165.17 192.765C166.825 191.262 166.824 191.261 166.824 191.261L166.818 191.255L166.803 191.238L166.746 191.176C166.697 191.122 166.624 191.044 166.53 190.943C166.341 190.74 166.064 190.445 165.706 190.07C164.989 189.32 163.945 188.247 162.628 186.949C159.995 184.355 156.264 180.85 151.864 177.207C143.154 169.996 131.494 161.963 120.439 159.737C109.549 157.543 102.719 157.429 91.8033 159.741C85.8589 161 81.67 164.216 78.0259 167.014C77.6539 167.3 77.2876 167.581 76.9257 167.856C72.9573 170.864 69.4139 173.168 64.1179 173.101C59.0058 173.036 55.6425 170.613 51.7922 167.529C51.5638 167.346 51.3336 167.161 51.101 166.973C47.4861 164.061 43.3101 160.697 37.1576 159.72C36.2335 159.574 35.318 159.419 34.4098 159.266C26.1121 157.865 18.4294 156.568 10.4473 162.353C7.62688 164.397 5.70815 167.454 4.38286 170.665C3.05072 173.893 2.24775 177.447 1.75995 180.698C1.27056 183.96 1.0882 186.988 1.02727 189.197C0.996749 190.303 0.996566 191.21 1.00418 191.844C1.00799 192.161 1.01375 192.41 1.01868 192.583C1.02114 192.669 1.02339 192.736 1.02508 192.783L1.02715 192.838L1.02779 192.854L1.02807 192.861C1.02807 192.861 1.02812 192.862 3.26233 192.765L1.02812 192.862L1.12062 195H170.227L166.825 191.262L165.17 192.765Z" fill="white"/>
<path fill-rule="evenodd" clip-rule="evenodd" d="M52.3396 95.1914L83.6076 114.155L85.9282 110.334L53.823 90.8631C53.5041 92.3815 53.0015 93.8323 52.3396 95.1914ZM45.4175 71.0809L84.6152 6.54547C85.256 5.49043 86.6314 5.15425 87.6872 5.79459L192.45 69.3318C193.506 69.9721 193.843 71.3465 193.202 72.4016L148.646 145.758C148.006 146.813 146.63 147.149 145.574 146.509L116.516 128.885L114.195 132.706L143.254 150.329C146.421 152.251 150.547 151.242 152.47 148.077L197.025 74.7204C198.948 71.5553 197.938 67.4322 194.771 65.5112L90.0078 1.97394C86.8403 0.0529221 82.7142 1.06147 80.7917 4.22659L41.3496 69.1645C42.7908 69.6415 44.1547 70.2882 45.4175 71.0809ZM105.046 121.929L97.3987 117.291L95.0781 121.112L102.725 125.749L105.046 121.929ZM119.894 64.9296C119.721 61.9135 118.61 60.4497 117.611 59.8939C116.611 59.3381 114.781 59.1674 112.125 60.6105C109.525 62.0225 106.73 64.7287 104.617 68.5252C102.503 72.3216 101.676 76.122 101.846 79.0732C102.02 82.0893 103.13 83.5531 104.13 84.1089C105.13 84.6647 106.96 84.8354 109.616 83.3923C112.215 81.9803 115.011 79.2741 117.124 75.4777C119.238 71.6812 120.064 67.8808 119.894 64.9296ZM121.033 77.6503C125.956 68.8065 125.397 59.1081 119.785 55.9883C114.172 52.8684 105.632 57.5087 100.708 66.3525C95.7848 75.1963 96.3435 84.8947 101.956 88.0145C107.568 91.1344 116.109 86.4941 121.033 77.6503Z" fill="white"/>
<path fill-rule="evenodd" clip-rule="evenodd" d="M50.9594 74.3696C49.3065 72.9641 46.7681 71.5726 42.5428 69.5994L44.4365 65.5504C48.6393 67.5131 51.6917 69.1239 53.8579 70.9659C56.1516 72.9162 57.3961 75.071 58.1704 77.9079L58.207 78.0421L58.2267 78.1798C58.4873 80.0027 58.4382 82.7975 58.1976 85.849C57.953 88.9523 57.4957 92.4926 56.8705 95.884L52.4719 95.0743C53.0693 91.8333 53.5065 88.4462 53.7389 85.4981C53.9675 82.5979 53.9848 80.2766 53.8171 78.9457C53.2517 76.9448 52.4508 75.6378 50.9594 74.3696Z" fill="white"/>
<path fill-rule="evenodd" clip-rule="evenodd" d="M112.171 18.0294L62.51 99.7912L57.9218 97.0086L107.583 15.2468L112.171 18.0294Z" stroke="white"/>
<path fill-rule="evenodd" clip-rule="evenodd" d="M43.9369 126.317C47.1481 126.317 49.7513 123.716 49.7513 120.507C49.7513 117.298 47.1481 114.697 43.9369 114.697C40.7257 114.697 38.1225 117.298 38.1225 120.507C38.1225 123.716 40.7257 126.317 43.9369 126.317ZM43.9369 131.68C50.1123 131.68 55.1184 126.678 55.1184 120.507C55.1184 114.336 50.1123 109.334 43.9369 109.334C37.7615 109.334 32.7554 114.336 32.7554 120.507C32.7554 126.678 37.7615 131.68 43.9369 131.68Z" stroke="white"/>
<path fill-rule="evenodd" clip-rule="evenodd" d="M66.2999 160.284C69.5111 160.284 72.1143 157.683 72.1143 154.474C72.1143 151.265 69.5111 148.664 66.2999 148.664C63.0887 148.664 60.4855 151.265 60.4855 154.474C60.4855 157.683 63.0887 160.284 66.2999 160.284ZM66.2999 165.647C72.4753 165.647 77.4814 160.645 77.4814 154.474C77.4814 148.303 72.4753 143.3 66.2999 143.3C60.1245 143.3 55.1184 148.303 55.1184 154.474C55.1184 160.645 60.1245 165.647 66.2999 165.647Z" stroke="white"/>
<path fill-rule="evenodd" clip-rule="evenodd" d="M119.555 164.118C109.214 162.035 103.003 161.938 92.7307 164.113C87.8249 165.152 84.4167 167.758 80.6985 170.601C80.3453 170.871 79.9893 171.143 79.6289 171.416C75.536 174.519 70.9522 177.657 64.0613 177.57C57.301 177.484 52.8861 174.133 48.9947 171.016C48.8154 170.873 48.6373 170.73 48.4601 170.588C44.7191 167.584 41.3999 164.919 36.456 164.134C35.5342 163.988 34.6438 163.841 33.7814 163.699C25.2602 162.292 19.469 161.335 13.0733 165.971C11.174 167.347 9.6706 169.576 8.51759 172.369C7.37142 175.146 6.63987 178.316 6.18311 181.36C5.72794 184.394 5.55571 187.234 5.49817 189.32C5.48603 189.76 5.47902 190.165 5.47551 190.531H159.891C159.759 190.4 159.625 190.267 159.487 190.131C156.921 187.602 153.287 184.189 149.011 180.649C140.371 173.496 129.444 166.11 119.555 164.118ZM165.17 192.765C166.825 191.262 166.824 191.261 166.824 191.261L166.818 191.255L166.803 191.238L166.746 191.176C166.697 191.122 166.624 191.044 166.53 190.943C166.341 190.74 166.064 190.445 165.706 190.07C164.989 189.32 163.945 188.247 162.628 186.949C159.995 184.355 156.264 180.85 151.864 177.207C143.154 169.996 131.494 161.963 120.439 159.737C109.549 157.543 102.719 157.429 91.8033 159.741C85.8589 161 81.67 164.216 78.0259 167.014C77.6539 167.3 77.2876 167.581 76.9257 167.856C72.9573 170.864 69.4139 173.168 64.1179 173.101C59.0058 173.036 55.6425 170.613 51.7922 167.529C51.5638 167.346 51.3336 167.161 51.101 166.973C47.4861 164.061 43.3101 160.697 37.1576 159.72C36.2335 159.574 35.318 159.419 34.4098 159.266C26.1121 157.865 18.4294 156.568 10.4473 162.353C7.62688 164.397 5.70815 167.454 4.38286 170.665C3.05072 173.893 2.24775 177.447 1.75995 180.698C1.27056 183.96 1.0882 186.988 1.02727 189.197C0.996749 190.303 0.996566 191.21 1.00418 191.844C1.00799 192.161 1.01375 192.41 1.01868 192.583C1.02114 192.669 1.02339 192.736 1.02508 192.783L1.02715 192.838L1.02779 192.854L1.02807 192.861C1.02807 192.861 1.02812 192.862 3.26233 192.765L1.02812 192.862L1.12062 195H170.227L166.825 191.262L165.17 192.765Z" stroke="white"/>
<path fill-rule="evenodd" clip-rule="evenodd" d="M52.3396 95.1914L83.6076 114.155L85.9282 110.334L53.823 90.8631C53.5041 92.3815 53.0015 93.8323 52.3396 95.1914ZM45.4175 71.0809L84.6152 6.54547C85.256 5.49043 86.6314 5.15425 87.6872 5.79459L192.45 69.3318C193.506 69.9721 193.843 71.3465 193.202 72.4016L148.646 145.758C148.006 146.813 146.63 147.149 145.574 146.509L116.516 128.885L114.195 132.706L143.254 150.329C146.421 152.251 150.547 151.242 152.47 148.077L197.025 74.7204C198.948 71.5553 197.938 67.4322 194.771 65.5112L90.0078 1.97394C86.8403 0.0529221 82.7142 1.06147 80.7917 4.22659L41.3496 69.1645C42.7908 69.6415 44.1547 70.2882 45.4175 71.0809ZM105.046 121.929L97.3987 117.291L95.0781 121.112L102.725 125.749L105.046 121.929ZM119.894 64.9296C119.721 61.9135 118.61 60.4497 117.611 59.8939C116.611 59.3381 114.781 59.1674 112.125 60.6105C109.525 62.0225 106.73 64.7287 104.617 68.5252C102.503 72.3216 101.676 76.122 101.846 79.0732C102.02 82.0893 103.13 83.5531 104.13 84.1089C105.13 84.6647 106.96 84.8354 109.616 83.3923C112.215 81.9803 115.011 79.2741 117.124 75.4777C119.238 71.6812 120.064 67.8808 119.894 64.9296ZM121.033 77.6503C125.956 68.8065 125.397 59.1081 119.785 55.9883C114.172 52.8684 105.632 57.5087 100.708 66.3525C95.7848 75.1963 96.3435 84.8947 101.956 88.0145C107.568 91.1344 116.109 86.4941 121.033 77.6503Z" stroke="white"/>
<path fill-rule="evenodd" clip-rule="evenodd" d="M50.9594 74.3696C49.3065 72.9641 46.7681 71.5726 42.5428 69.5994L44.4365 65.5504C48.6393 67.5131 51.6917 69.1239 53.8579 70.9659C56.1516 72.9162 57.3961 75.071 58.1704 77.9079L58.207 78.0421L58.2267 78.1798C58.4873 80.0027 58.4382 82.7975 58.1976 85.849C57.953 88.9523 57.4957 92.4926 56.8705 95.884L52.4719 95.0743C53.0693 91.8333 53.5065 88.4462 53.7389 85.4981C53.9675 82.5979 53.9848 80.2766 53.8171 78.9457C53.2517 76.9448 52.4508 75.6378 50.9594 74.3696Z" stroke="white"/>
</svg>
